<svg id="visual" viewBox="0 0 900 600" width="900" height="600" xmlns="http://www.w3.org/2000/svg" xmlns:xlink="http://www.w3.org/1999/xlink" version="1.1"><path d="M0 207L21.5 214.3C43 221.7 86 236.3 128.8 237.2C171.7 238 214.3 225 257.2 212.2C300 199.3 343 186.7 385.8 184.8C428.7 183 471.3 192 514.2 202.8C557 213.7 600 226.3 642.8 230.2C685.7 234 728.3 229 771.2 225.8C814 222.7 857 221.3 878.5 220.7L900 220L900 0L878.5 0C857 0 814 0 771.2 0C728.3 0 685.7 0 642.8 0C600 0 557 0 514.2 0C471.3 0 428.7 0 385.8 0C343 0 300 0 257.2 0C214.3 0 171.7 0 128.8 0C86 0 43 0 21.5 0L0 0Z" fill="#efbf04"></path><path d="M0 196L21.5 190.8C43 185.7 86 175.3 128.8 176.2C171.7 177 214.3 189 257.2 184.2C300 179.3 343 157.7 385.8 151.2C428.7 144.7 471.3 153.3 514.2 160C557 166.7 600 171.3 642.8 172.5C685.7 173.7 728.3 171.3 771.2 167.7C814 164 857 159 878.5 156.5L900 154L900 0L878.5 0C857 0 814 0 771.2 0C728.3 0 685.7 0 642.8 0C600 0 557 0 514.2 0C471.3 0 428.7 0 385.8 0C343 0 300 0 257.2 0C214.3 0 171.7 0 128.8 0C86 0 43 0 21.5 0L0 0Z" fill="#f3c503"></path><path d="M0 165L21.5 162.2C43 159.3 86 153.7 128.8 143C171.7 132.3 214.3 116.7 257.2 117.8C300 119 343 137 385.8 144.5C428.7 152 471.3 149 514.2 147.8C557 146.7 600 147.3 642.8 142.3C685.7 137.3 728.3 126.7 771.2 116.5C814 106.3 857 96.7 878.5 91.8L900 87L900 0L878.5 0C857 0 814 0 771.2 0C728.3 0 685.7 0 642.8 0C600 0 557 0 514.2 0C471.3 0 428.7 0 385.8 0C343 0 300 0 257.2 0C214.3 0 171.7 0 128.8 0C86 0 43 0 21.5 0L0 0Z" fill="#f7cb02"></path><path d="M0 117L21.5 117.7C43 118.3 86 119.7 128.8 112C171.7 104.3 214.3 87.7 257.2 84.5C300 81.3 343 91.7 385.8 100.5C428.7 109.3 471.3 116.7 514.2 115C557 113.3 600 102.7 642.8 98.2C685.7 93.7 728.3 95.3 771.2 90.7C814 86 857 75 878.5 69.5L900 64L900 0L878.5 0C857 0 814 0 771.2 0C728.3 0 685.7 0 642.8 0C600 0 557 0 514.2 0C471.3 0 428.7 0 385.8 0C343 0 300 0 257.2 0C214.3 0 171.7 0 128.8 0C86 0 43 0 21.5 0L0 0Z" fill="#fbd101"></path><path d="M0 20L21.5 23.8C43 27.7 86 35.3 128.8 35.8C171.7 36.3 214.3 29.7 257.2 33.5C300 37.3 343 51.7 385.8 54C428.7 56.3 471.3 46.7 514.2 39.3C557 32 600 27 642.8 29.8C685.7 32.7 728.3 43.3 771.2 52.3C814 61.3 857 68.7 878.5 72.3L900 76L900 0L878.5 0C857 0 814 0 771.2 0C728.3 0 685.7 0 642.8 0C600 0 557 0 514.2 0C471.3 0 428.7 0 385.8 0C343 0 300 0 257.2 0C214.3 0 171.7 0 128.8 0C86 0 43 0 21.5 0L0 0Z" fill="#ffd700"></path></svg>